<svg width="405" height="829" viewBox="0 0 405 829" version="1.1" xmlns="http://www.w3.org/2000/svg" xmlns:xlink="http://www.w3.org/1999/xlink" xmlns:figma="http://www.figma.com/figma/ns">
<title>Pixel quite black</title>
<desc>Created using Figma</desc>
<g id="Canvas" transform="translate(-909 415)" figma:type="canvas">
<g id="Pixel quite black" style="mix-blend-mode:normal;" figma:type="frame">
<g id="body" style="mix-blend-mode:normal;" figma:type="vector">
<use xlink:href="#path0_fill" transform="translate(909 -415)" fill="#424242" style="mix-blend-mode:normal;"/>
</g>
<g id="lines" style="mix-blend-mode:normal;" figma:type="vector">
<use xlink:href="#path1_fill" transform="translate(909 -415)" fill="#353535" style="mix-blend-mode:normal;"/>
<use xlink:href="#path2_fill" transform="translate(909 -415)" fill="#353535" style="mix-blend-mode:normal;"/>
</g>
<g id="face" style="mix-blend-mode:normal;" figma:type="rounded-rectangle">
<use xlink:href="#path3_fill" transform="translate(917 -407)" fill="#1D1D1D" style="mix-blend-mode:normal;"/>
</g>
<g id="screen" style="mix-blend-mode:normal;" figma:type="rounded-rectangle">
<use xlink:href="#path4_fill" transform="translate(930 -321)" fill="#303030" style="mix-blend-mode:normal;"/>
<mask id="mask0_outline_ins">
<use xlink:href="#path4_fill" fill="white" transform="translate(930 -321)"/>
</mask>
<g mask="url(#mask0_outline_ins)">
<use xlink:href="#path5_stroke_2x" transform="translate(930 -321)" style="mix-blend-mode:normal;"/>
</g>
</g>
<g id="sensor" style="mix-blend-mode:normal;" figma:type="rounded-rectangle">
<use xlink:href="#path6_fill" transform="translate(1094 -345)" style="mix-blend-mode:normal;"/>
</g>
<g id="earpiece" style="mix-blend-mode:normal;" figma:type="rounded-rectangle">
<use xlink:href="#path7_fill" transform="translate(1066 -376)" fill="#424242" style="mix-blend-mode:normal;"/>
</g>
<g id="cam frame" style="mix-blend-mode:normal;" figma:type="ellipse">
<use xlink:href="#path8_fill" transform="translate(978 -382)" fill="#424242" style="mix-blend-mode:normal;"/>
</g>
<g id="lens" style="mix-blend-mode:normal;" figma:type="ellipse">
<use xlink:href="#path9_fill" transform="translate(982 -378)" fill="#212121" style="mix-blend-mode:normal;"/>
</g>
</g>
</g>
<defs>
<path id="path0_fill" fill-rule="evenodd" d="M 339 0L 63 0C 28.2061 0 0 28.2061 0 63L 0 766C 0 800.794 28.2061 829 63 829L 339 829C 373.794 829 402 800.794 402 766L 402 446C 403.657 446 405 444.657 405 443L 405 335C 405 333.343 403.657 332 402 332L 402 262C 403.657 262 405 260.657 405 259L 405 208C 405 206.343 403.657 205 402 205L 402 63C 402 28.2061 373.794 0 339 0Z"/>
<path id="path1_fill" d="M 284 0L 284 77L 0 77L 0 87L 402 87L 402 77L 292 77L 292 0L 284 0Z"/>
<path id="path2_fill" d="M 401.804 771L 0.195557 771C 0.519409 775.124 1.24036 779.137 2.32031 783L 399.68 783C 400.76 779.137 401.481 775.124 401.804 771Z"/>
<path id="path3_fill" d="M 0 55C 0 24.6243 24.6243 0 55 0L 331 0C 361.376 0 386 24.6243 386 55L 386 758C 386 788.376 361.376 813 331 813L 55 813C 24.6243 813 0 788.376 0 758L 0 55Z"/>
<path id="path4_fill" d="M 0 0L 360 0L 360 640L 0 640L 0 0Z"/>
<path id="path5_stroke_2x" d="M 0 0L 0 -1L -1 -1L -1 0L 0 0ZM 360 0L 361 0L 361 -1L 360 -1L 360 0ZM 360 640L 360 641L 361 641L 361 640L 360 640ZM 0 640L -1 640L -1 641L 0 641L 0 640ZM 0 1L 360 1L 360 -1L 0 -1L 0 1ZM 359 0L 359 640L 361 640L 361 0L 359 0ZM 360 639L 0 639L 0 641L 360 641L 360 639ZM 1 640L 1 0L -1 0L -1 640L 1 640Z"/>
<path id="path6_fill" d="M 0 6.5C 0 2.91015 2.91015 0 6.5 0L 25.5 0C 29.0899 0 32 2.91015 32 6.5C 32 10.0899 29.0899 13 25.5 13L 6.5 13C 2.91015 13 0 10.0899 0 6.5Z"/>
<path id="path7_fill" d="M 0 3C 0 1.34315 1.34315 0 3 0L 85 0C 86.6569 0 88 1.34315 88 3C 88 4.65685 86.6569 6 85 6L 3 6C 1.34315 6 0 4.65685 0 3Z"/>
<path id="path8_fill" d="M 18 9C 18 13.9706 13.9706 18 9 18C 4.02944 18 0 13.9706 0 9C 0 4.02944 4.02944 0 9 0C 13.9706 0 18 4.02944 18 9Z"/>
<path id="path9_fill" d="M 10 5C 10 7.76142 7.76142 10 5 10C 2.23858 10 0 7.76142 0 5C 0 2.23858 2.23858 0 5 0C 7.76142 0 10 2.23858 10 5Z"/>
</defs>
</svg>
