<?xml version="1.0" standalone="no"?>
<!DOCTYPE svg PUBLIC "-//W3C//DTD SVG 20010904//EN"
 "http://www.w3.org/TR/2001/REC-SVG-20010904/DTD/svg10.dtd">
<svg version="1.0" xmlns="http://www.w3.org/2000/svg"
 width="16.000000pt" height="16.000000pt" viewBox="0 0 16.000000 16.000000"
 preserveAspectRatio="xMidYMid meet">
<metadata>
Created by potrace 1.11, written by Peter Selinger 2001-2013
</metadata>
<g transform="translate(0.000000,16.000000) scale(0.002105,-0.002105)"
fill="#000000" stroke="none">
<path d="M2150 6049 c-537 -51 -1018 -277 -1395 -654 -349 -349 -566 -783
-641 -1280 -25 -164 -25 -466 0 -630 101 -675 480 -1253 1052 -1607 739 -457
1686 -445 2414 30 58 38 131 89 163 115 l57 47 58 -47 c31 -26 104 -77 162
-115 728 -475 1675 -487 2414 -30 351 217 651 544 834 908 103 205 182 459
218 699 25 164 25 466 0 630 -101 675 -480 1253 -1052 1607 -739 457 -1686
445 -2414 -30 -58 -38 -131 -89 -162 -115 l-58 -47 -57 47 c-79 64 -249 174
-354 228 -375 194 -830 283 -1239 244z m3338 -60 c1025 -111 1840 -926 1951
-1951 14 -125 14 -351 0 -476 -112 -1032 -932 -1846 -1966 -1953 -145 -15
-440 -7 -573 16 -713 120 -1303 558 -1625 1206 -162 327 -235 668 -222 1043 5
147 31 358 53 429 5 16 -7 17 -150 17 l-156 0 0 -1099 c0 -692 4 -1109 10
-1125 9 -26 50 -49 103 -61 23 -5 27 -10 27 -40 l0 -35 -515 0 -515 0 0 35 c0
30 4 35 27 40 53 12 94 35 103 61 6 16 10 433 10 1125 l0 1099 -445 0 c-439 0
-444 0 -464 -21 -11 -12 -23 -40 -26 -63 -11 -71 -14 -76 -46 -76 l-29 0 0
520 0 520 29 0 c32 0 35 -5 46 -79 4 -24 16 -52 26 -62 18 -18 53 -19 1153
-19 l1135 0 55 74 c380 504 931 815 1556 879 81 9 358 6 448 -4z"/>
<path d="M3742 5138 c-18 -97 -27 -102 -185 -106 l-132 -4 -34 -56 c-61 -99
-112 -195 -152 -285 -43 -96 -103 -271 -114 -329 l-7 -38 291 0 291 0 19 -31
c11 -18 23 -54 26 -80 6 -46 9 -49 36 -49 l29 0 0 520 0 520 -28 0 c-27 0 -29
-3 -40 -62z"/>
<path d="M3870 4680 l0 -520 29 0 c27 0 30 3 36 49 3 26 15 62 26 80 l19 31
450 0 450 0 0 -1105 c0 -788 -3 -1111 -11 -1128 -12 -27 -39 -42 -93 -52 -33
-7 -36 -10 -36 -41 l0 -34 515 0 515 0 0 34 c0 31 -3 34 -36 41 -54 10 -81 25
-93 52 -8 17 -11 340 -11 1128 l0 1105 450 0 450 0 19 -31 c11 -18 23 -54 26
-80 6 -46 9 -49 36 -49 l29 0 0 520 0 520 -28 0 c-27 0 -29 -3 -40 -62 -7 -37
-20 -70 -32 -82 -21 -21 -23 -21 -1285 -21 -1262 0 -1264 0 -1285 21 -12 12
-25 45 -32 82 -11 59 -13 62 -40 62 l-28 0 0 -520z"/>
<path d="M3808 3789 c-17 -9 -18 -43 -18 -477 0 -483 1 -492 40 -492 8 0 58
43 110 95 52 52 97 95 101 95 3 0 30 -57 59 -127 29 -71 61 -137 71 -147 18
-19 19 -19 84 9 36 15 70 35 75 44 6 12 -8 57 -50 156 -33 77 -60 146 -60 153
0 9 31 12 124 12 115 0 125 2 131 20 3 10 2 27 -4 37 -14 26 -625 633 -636
633 -6 0 -18 -5 -27 -11z"/>
</g>
</svg>
